<svg width="60" height="60" viewBox="0 0 60 60" fill="none" xmlns="http://www.w3.org/2000/svg">
<path d="M50.6248 52.9687C50.6248 53.2469 50.5424 53.5188 50.3878 53.75C50.2333 53.9813 50.0137 54.1615 49.7567 54.268C49.4998 54.3744 49.217 54.4022 48.9442 54.348C48.6715 54.2937 48.4209 54.1598 48.2242 53.9631C48.0276 53.7664 47.8936 53.5159 47.8394 53.2431C47.7851 52.9703 47.813 52.6876 47.9194 52.4306C48.0258 52.1736 48.2061 51.954 48.4373 51.7995C48.6686 51.645 48.9405 51.5625 49.2186 51.5625C49.5914 51.5629 49.9489 51.7112 50.2125 51.9748C50.4762 52.2385 50.6244 52.5959 50.6248 52.9687ZM58.7878 13.7879L46.3017 26.274C46.979 26.3617 47.6012 26.6931 48.0519 27.2064C48.5025 27.7196 48.7506 28.3795 48.7498 29.0625V36.1743L58.7878 46.2121L57.4619 47.5379L53.4373 43.5134L43.5132 53.4375L47.5378 57.4621L46.2119 58.7879L34.9619 47.5379L36.2878 46.2121L38.4373 48.3616L48.3615 38.4375L47.1494 37.2254C47.0624 37.1384 46.9933 37.035 46.9462 36.9213C46.8991 36.8075 46.8748 36.6856 46.8748 36.5625V29.0625C46.8748 28.8139 46.7761 28.5754 46.6003 28.3996C46.4244 28.2238 46.186 28.125 45.9373 28.125C45.6887 28.125 45.4502 28.2238 45.2744 28.3996C45.0986 28.5754 44.9998 28.8139 44.9998 29.0625V32.8125C44.9999 32.9979 44.9449 33.1792 44.8419 33.3334C44.7388 33.4875 44.5924 33.6077 44.4211 33.6787C44.2498 33.7496 44.0613 33.7682 43.8794 33.732C43.6976 33.6958 43.5305 33.6065 43.3994 33.4754L41.2498 31.3259L37.694 34.8817C37.1735 35.4048 36.4735 35.7104 35.7359 35.7363C35.7101 36.4738 35.4046 37.1737 34.8815 37.6942L29.4506 43.125H30.9373C31.6833 43.125 32.3986 43.4213 32.9261 43.9488C33.4535 44.4762 33.7498 45.1916 33.7498 45.9375C33.7498 46.6834 33.4535 47.3988 32.9261 47.9262C32.3986 48.4537 31.6833 48.75 30.9373 48.75H23.8256L13.7878 58.7879L12.4619 57.4621L16.4865 53.4375L6.56234 43.5134L2.53777 47.5379L1.21191 46.2121L13.698 33.7266C13.0206 33.6389 12.3983 33.3074 11.9476 32.794C11.497 32.2806 11.2489 31.6206 11.2498 30.9375V23.8257L1.21191 13.7879L2.53777 12.4621L6.56234 16.4866L8.71191 14.3371L10.0378 15.6629L7.8882 17.8125L10.3123 20.2366L20.2365 10.3125L17.8123 7.88836L11.444 14.2567L10.1182 12.9308L16.4865 6.5625L12.4619 2.53793L13.7878 1.21207L26.2739 13.6982C26.3615 13.0208 26.693 12.3986 27.2062 11.948C27.7195 11.4974 28.3793 11.2492 29.0623 11.25H36.174L46.2119 1.21207L47.5378 2.53793L43.5132 6.5625L53.4373 16.4866L57.4619 12.4621L58.7878 13.7879ZM39.7632 49.6875L42.1873 52.1116L52.1115 42.1875L49.6873 39.7634L39.7632 49.6875ZM14.0623 31.875C14.3109 31.8747 14.5492 31.7759 14.7249 31.6001C14.9007 31.4243 14.9996 31.1861 14.9998 30.9375V27.1875C14.9998 27.0021 15.0548 26.8208 15.1578 26.6666C15.2608 26.5125 15.4073 26.3923 15.5786 26.3213C15.7499 26.2504 15.9384 26.2318 16.1203 26.268C16.3021 26.3042 16.4692 26.3934 16.6003 26.5246L18.7498 28.6741L22.3057 25.1183C22.5904 24.8335 22.9309 24.6107 23.3059 24.4639C23.6809 24.3171 24.0822 24.2495 24.4845 24.2653L25.0378 23.7121L29.2565 27.9308C29.4537 28.128 29.721 28.2387 29.9998 28.2387C30.2786 28.2387 30.546 28.128 30.7432 27.9308C30.9403 27.7337 31.0511 27.4663 31.0511 27.1875C31.0511 26.9087 30.9403 26.6413 30.7432 26.4442L26.5244 22.2254L27.8503 20.8996L32.069 25.1183C32.2662 25.3153 32.5334 25.4259 32.8121 25.4259C33.0908 25.4259 33.3581 25.3153 33.5552 25.1183L33.556 25.1175C33.7528 24.9202 33.8633 24.653 33.8633 24.3744C33.8633 24.0957 33.7528 23.8285 33.556 23.6312L21.5623 11.6384L11.6382 21.5625L12.8503 22.7746C12.9373 22.8616 13.0064 22.965 13.0535 23.0787C13.1006 23.1925 13.1248 23.3144 13.1248 23.4375V30.9375C13.1245 31.0607 13.1485 31.1828 13.1955 31.2967C13.2425 31.4106 13.3115 31.5141 13.3986 31.6012C13.4858 31.6883 13.5893 31.7574 13.7032 31.8044C13.8171 31.8513 13.9391 31.8754 14.0623 31.875ZM16.8748 29.4507V30.5491L17.424 30L16.8748 29.4507ZM20.2365 49.6875L10.3123 39.7634L7.8882 42.1875L17.8123 52.1116L20.2365 49.6875ZM33.8636 35.625C33.8636 35.4171 33.8019 35.2139 33.6864 35.041C33.5709 34.8681 33.4067 34.7334 33.2146 34.6538C33.0226 34.5743 32.8112 34.5535 32.6073 34.594C32.4034 34.6346 32.2161 34.7347 32.069 34.8817L27.8503 39.1004C27.6745 39.2762 27.436 39.375 27.1873 39.375C26.9387 39.375 26.7002 39.2762 26.5244 39.1004C26.3486 38.9246 26.2498 38.6861 26.2498 38.4375C26.2498 38.1889 26.3486 37.9504 26.5244 37.7746L30.7432 33.5558C30.9403 33.3587 31.0511 33.0913 31.0511 32.8125C31.0511 32.5337 30.9403 32.2663 30.7432 32.0692C30.546 31.872 30.2786 31.7613 29.9998 31.7613C29.721 31.7613 29.4537 31.872 29.2565 32.0692L25.0378 36.2879C24.862 36.4637 24.6235 36.5625 24.3748 36.5625C24.1262 36.5625 23.8877 36.4637 23.7119 36.2879C23.5361 36.1121 23.4373 35.8736 23.4373 35.625C23.4373 35.3764 23.5361 35.1379 23.7119 34.9621L27.9307 30.7433C28.0283 30.6457 28.1057 30.5298 28.1585 30.4023C28.2114 30.2747 28.2386 30.138 28.2386 30C28.2386 29.8619 28.2114 29.7253 28.1585 29.5977C28.1057 29.4702 28.0283 29.3543 27.9307 29.2567C27.833 29.1591 27.7172 29.0816 27.5896 29.0288C27.4621 28.976 27.3254 28.9488 27.1873 28.9488C27.0493 28.9488 26.9126 28.976 26.7851 29.0288C26.6575 29.0816 26.5416 29.1591 26.444 29.2567L22.2253 33.4754C22.1382 33.5625 22.0349 33.6315 21.9211 33.6787C21.8074 33.7258 21.6855 33.75 21.5623 33.75C21.4392 33.75 21.3173 33.7258 21.2036 33.6787C21.0898 33.6315 20.9865 33.5625 20.8994 33.4754C20.8124 33.3884 20.7433 33.285 20.6962 33.1713C20.6491 33.0575 20.6248 32.9356 20.6248 32.8125C20.6248 32.6894 20.6491 32.5675 20.6962 32.4537C20.7433 32.34 20.8124 32.2366 20.8994 32.1496L25.1182 27.9308C25.3153 27.7337 25.4261 27.4663 25.4261 27.1875C25.4261 26.9087 25.3153 26.6413 25.1182 26.4442C24.921 26.247 24.6536 26.1363 24.3748 26.1363C24.096 26.1363 23.8287 26.247 23.6315 26.4442L11.6382 38.4375L21.5623 48.3616L22.7744 47.1496C22.8615 47.0625 22.9648 46.9935 23.0786 46.9464C23.1923 46.8992 23.3142 46.875 23.4373 46.875H30.9373C31.186 46.875 31.4244 46.7762 31.6003 46.6004C31.7761 46.4246 31.8748 46.1861 31.8748 45.9375C31.8748 45.6889 31.7761 45.4504 31.6003 45.2746C31.4244 45.0988 31.186 45 30.9373 45H27.1873C27.0019 45 26.8207 44.945 26.6665 44.842C26.5123 44.739 26.3921 44.5926 26.3212 44.4213C26.2502 44.25 26.2316 44.0615 26.2678 43.8796C26.304 43.6977 26.3933 43.5307 26.5244 43.3996L33.5557 36.3683C33.6536 36.2709 33.7313 36.1551 33.7841 36.0275C33.837 35.8999 33.864 35.7631 33.8636 35.625ZM43.1248 29.4509L42.5757 30L43.1248 30.5493V29.4509ZM48.3615 21.5625L38.4373 11.6384L37.2253 12.8504C37.1382 12.9375 37.0349 13.0065 36.9211 13.0536C36.8074 13.1008 36.6855 13.125 36.5623 13.125H29.0623C28.8137 13.125 28.5752 13.2238 28.3994 13.3996C28.2236 13.5754 28.1248 13.8139 28.1248 14.0625C28.1248 14.3111 28.2236 14.5496 28.3994 14.7254C28.5752 14.9012 28.8137 15 29.0623 15H32.8123C32.9978 15 33.179 15.055 33.3332 15.158C33.4874 15.261 33.6076 15.4074 33.6785 15.5787C33.7495 15.75 33.768 15.9385 33.7319 16.1204C33.6957 16.3023 33.6064 16.4693 33.4753 16.6004L32.5378 17.5379L31.8748 16.875H29.4507L34.8815 22.3058C35.1541 22.5769 35.3703 22.8994 35.5174 23.2545C35.6646 23.6097 35.7398 23.9905 35.7388 24.375C35.7388 24.4123 35.7375 24.4493 35.7361 24.4862L36.2878 25.0379L32.069 29.2567C31.872 29.4538 31.7613 29.7211 31.7613 29.9999C31.7613 30.2786 31.872 30.5459 32.069 30.7431C32.2663 30.9398 32.5336 31.0503 32.8122 31.0503C33.0909 31.0503 33.3581 30.9398 33.5554 30.7431L37.7742 26.5243L39.1 27.8502L34.8813 32.0689C34.6842 32.2661 34.5735 32.5334 34.5735 32.8121C34.5735 33.0909 34.6842 33.3582 34.8813 33.5553C35.0786 33.752 35.3458 33.8625 35.6244 33.8625C35.903 33.8625 36.1703 33.752 36.3676 33.5553L48.3615 21.5625ZM52.1115 17.8125L42.1873 7.88836L39.7632 10.3125L49.6873 20.2366L52.1115 17.8125ZM51.5623 10.7812C51.5623 11.0594 51.6448 11.3313 51.7993 11.5625C51.9539 11.7938 52.1735 11.974 52.4304 12.0805C52.6874 12.1869 52.9702 12.2147 53.2429 12.1605C53.5157 12.1062 53.7663 11.9723 53.963 11.7756C54.1596 11.5789 54.2936 11.3284 54.3478 11.0556C54.4021 10.7828 54.3742 10.5001 54.2678 10.2431C54.1614 9.98614 53.9811 9.76651 53.7499 9.61199C53.5186 9.45747 53.2467 9.375 52.9686 9.375C52.5958 9.3754 52.2383 9.52369 51.9747 9.78732C51.711 10.051 51.5627 10.4084 51.5623 10.7812ZM9.37484 7.03125C9.37484 7.30938 9.45732 7.58126 9.61184 7.81252C9.76636 8.04377 9.98599 8.22402 10.2429 8.33045C10.4999 8.43689 10.7827 8.46474 11.0554 8.41048C11.3282 8.35622 11.5788 8.22228 11.7755 8.02562C11.9721 7.82895 12.1061 7.57838 12.1603 7.30559C12.2146 7.03281 12.1867 6.75006 12.0803 6.4931C11.9739 6.23614 11.7936 6.01651 11.5624 5.86199C11.3311 5.70747 11.0592 5.625 10.7811 5.625C10.4083 5.6254 10.0508 5.77369 9.78717 6.03732C9.52353 6.30096 9.37525 6.65841 9.37484 7.03125ZM7.03109 47.8125C6.75296 47.8125 6.48108 47.895 6.24982 48.0495C6.01857 48.204 5.83832 48.4236 5.73189 48.6806C5.62545 48.9376 5.5976 49.2203 5.65186 49.4931C5.70612 49.7659 5.84006 50.0164 6.03672 50.2131C6.23339 50.4098 6.48396 50.5437 6.75675 50.598C7.02953 50.6522 7.31228 50.6244 7.56924 50.518C7.8262 50.4115 8.04583 50.2313 8.20035 50C8.35487 49.7688 8.43734 49.4969 8.43734 49.2187C8.43694 48.8459 8.28865 48.4885 8.02502 48.2248C7.76138 47.9612 7.40393 47.8129 7.03109 47.8125ZM30.9373 1.875H29.0623V3.75H30.9373V1.875ZM29.0623 9.375H30.9373V5.625H29.0623V9.375ZM24.2744 9.58793L26.1003 9.16207L24.3504 1.66207L22.5243 2.08793L24.2744 9.58793ZM35.7253 9.58793L37.4753 2.08793L35.6493 1.66207L33.8994 9.16207L35.7253 9.58793ZM29.0623 58.125H30.9373V56.25H29.0623V58.125ZM30.9373 50.625H29.0623V54.375H30.9373V50.625ZM37.4753 57.9121L35.7253 50.4121L33.8994 50.8379L35.6493 58.3379L37.4753 57.9121ZM24.2744 50.4121L22.5243 57.9121L24.3504 58.3379L26.1003 50.8379L24.2744 50.4121ZM3.74984 30.9375V29.0625H1.87484V30.9375H3.74984ZM5.62484 30.9375H9.37484V29.0625H5.62484V30.9375ZM2.08789 37.4755L9.58789 35.7254L9.1618 33.8994L1.6618 35.6495L2.08789 37.4755ZM2.08789 22.5245L1.6618 24.3505L9.1618 26.1006L9.58789 24.2746L2.08789 22.5245ZM56.2498 29.0625V30.9375H58.1248V29.0625H56.2498ZM54.3748 29.0625H50.6248V30.9375H54.3748V29.0625ZM57.9118 22.5245L50.4118 24.2746L50.8379 26.1006L58.3379 24.3505L57.9118 22.5245ZM57.9118 37.4755L58.3379 35.6495L50.8379 33.8994L50.4118 35.7254L57.9118 37.4755Z" fill="white"/>
</svg>
