<svg width="60" height="60" viewBox="0 0 60 60" fill="none" xmlns="http://www.w3.org/2000/svg">
<path d="M40.3125 30.9375C39.7562 30.9375 39.2125 31.1025 38.75 31.4115C38.2874 31.7205 37.927 32.1598 37.7141 32.6737C37.5012 33.1876 37.4455 33.7531 37.554 34.2987C37.6626 34.8443 37.9304 35.3454 38.3238 35.7387C38.7171 36.1321 39.2182 36.3999 39.7638 36.5085C40.3094 36.617 40.8749 36.5613 41.3888 36.3484C41.9027 36.1355 42.342 35.7751 42.651 35.3125C42.96 34.85 43.125 34.3063 43.125 33.75C43.125 33.0041 42.8287 32.2887 42.3012 31.7613C41.7738 31.2338 41.0584 30.9375 40.3125 30.9375ZM40.3125 34.6875C40.1271 34.6875 39.9458 34.6325 39.7917 34.5295C39.6375 34.4265 39.5173 34.2801 39.4464 34.1088C39.3754 33.9375 39.3568 33.749 39.393 33.5671C39.4292 33.3852 39.5185 33.2182 39.6496 33.0871C39.7807 32.956 39.9477 32.8667 40.1296 32.8305C40.3115 32.7943 40.5 32.8129 40.6713 32.8839C40.8426 32.9548 40.989 33.075 41.092 33.2292C41.195 33.3833 41.25 33.5646 41.25 33.75C41.25 33.9986 41.1512 34.2371 40.9754 34.4129C40.7996 34.5887 40.5611 34.6875 40.3125 34.6875Z" fill="white"/>
<path d="M57.1876 10.3125H55.3126V8.43751H57.1876C57.4362 8.43751 57.6747 8.33873 57.8505 8.16292C58.0263 7.9871 58.1251 7.74865 58.1251 7.50001C58.1251 7.25137 58.0263 7.01291 57.8505 6.83709C57.6747 6.66128 57.4362 6.56251 57.1876 6.56251H55.3126V5.62501C55.3126 5.37637 55.2138 5.13791 55.038 4.96209C54.8622 4.78628 54.6237 4.68751 54.3751 4.68751H53.4376V2.81251C53.4376 2.56387 53.3388 2.32541 53.163 2.14959C52.9872 1.97378 52.7487 1.87501 52.5001 1.87501C52.2514 1.87501 52.013 1.97378 51.8372 2.14959C51.6614 2.32541 51.5626 2.56387 51.5626 2.81251V4.68751H49.6876V2.81251C49.6876 2.56387 49.5888 2.32541 49.413 2.14959C49.2372 1.97378 48.9987 1.87501 48.7501 1.87501C48.5014 1.87501 48.263 1.97378 48.0872 2.14959C47.9114 2.32541 47.8126 2.56387 47.8126 2.81251V4.68751H46.8751C46.6264 4.68751 46.388 4.78628 46.2122 4.96209C46.0364 5.13791 45.9376 5.37637 45.9376 5.62501V6.56251H44.5688L42.9657 4.17188C42.8808 4.04292 42.7653 3.93693 42.6296 3.86333C42.4938 3.78973 42.342 3.7508 42.1876 3.75001H39.2063C38.9852 3.12449 38.55 2.5973 37.9778 2.2616C37.4055 1.9259 36.733 1.80332 36.0791 1.91551C35.4252 2.0277 34.832 2.36745 34.4044 2.8747C33.9767 3.38195 33.7422 4.02405 33.7422 4.68751C33.7422 5.35096 33.9767 5.99306 34.4044 6.50031C34.832 7.00756 35.4252 7.34731 36.0791 7.4595C36.733 7.57169 37.4055 7.44911 37.9778 7.11341C38.55 6.77771 38.9852 6.25052 39.2063 5.62501H41.6813L43.2845 8.01563C43.3694 8.14459 43.4849 8.25058 43.6206 8.32418C43.7563 8.39778 43.9082 8.43671 44.0626 8.43751H45.9376V10.3125H39.5438L32.2032 7.55626C32.0981 7.51808 31.9869 7.49903 31.8751 7.50001H27.9563C27.7352 6.87449 27.3 6.3473 26.7278 6.0116C26.1555 5.6759 25.483 5.55332 24.8291 5.66551C24.1752 5.7777 23.582 6.11745 23.1544 6.6247C22.7267 7.13195 22.4922 7.77405 22.4922 8.43751C22.4922 9.10096 22.7267 9.74306 23.1544 10.2503C23.582 10.7576 24.1752 11.0973 24.8291 11.2095C25.483 11.3217 26.1555 11.1991 26.7278 10.8634C27.3 10.5277 27.7352 10.0005 27.9563 9.37501H31.7063L39.047 12.1313C39.1521 12.1694 39.2632 12.1885 39.3751 12.1875H42.0563L38.9345 15.9375H35.4563C35.2352 15.312 34.8 14.7848 34.2278 14.4491C33.6555 14.1134 32.983 13.9908 32.3291 14.103C31.6752 14.2152 31.082 14.5549 30.6544 15.0622C30.2267 15.5695 29.9922 16.2115 29.9922 16.875C29.9922 17.5385 30.2267 18.1806 30.6544 18.6878C31.082 19.1951 31.6752 19.5348 32.3291 19.647C32.983 19.7592 33.6555 19.6366 34.2278 19.3009C34.8 18.9652 35.2352 18.438 35.4563 17.8125H39.3751C39.5128 17.8127 39.6489 17.7826 39.7737 17.7243C39.8984 17.6659 40.0088 17.5808 40.097 17.475L44.5032 12.1875H45.9376V13.125C45.9376 13.3736 46.0364 13.6121 46.2122 13.7879C46.388 13.9637 46.6264 14.0625 46.8751 14.0625H47.8126V17.3438L44.6907 19.6875H40.3126C40.0639 19.6875 39.8255 19.7863 39.6497 19.9621C39.4739 20.1379 39.3751 20.3764 39.3751 20.625C39.3751 20.8736 39.4739 21.1121 39.6497 21.2879C39.8255 21.4637 40.0639 21.5625 40.3126 21.5625H45.0001C45.2029 21.5625 45.4003 21.4967 45.5626 21.375L49.3126 18.5625C49.429 18.4752 49.5235 18.3619 49.5886 18.2318C49.6537 18.1016 49.6876 17.958 49.6876 17.8125V14.0625H51.5626V20.2406L46.2095 25.5938C45.8323 25.4111 45.4191 25.315 45.0001 25.3125C44.4198 25.3141 43.8543 25.4952 43.381 25.8309C42.9077 26.1666 42.5498 26.6404 42.3563 27.1875H37.7907C38.5802 26.3048 39.5467 25.5982 40.6273 25.1136C41.7078 24.6291 42.8783 24.3774 44.0626 24.375C44.3112 24.375 44.5497 24.2762 44.7255 24.1004C44.9013 23.9246 45.0001 23.6861 45.0001 23.4375C45.0001 23.1889 44.9013 22.9504 44.7255 22.7746C44.5497 22.5988 44.3112 22.5 44.0626 22.5C42.6922 22.4995 41.3356 22.7738 40.0732 23.3069C38.8107 23.8399 37.668 24.6207 36.7126 25.6031L35.6251 22.2C35.5599 22.006 35.4329 21.8386 35.2636 21.7235C35.0943 21.6084 34.892 21.5518 34.6876 21.5625H27.0188C26.7977 20.937 26.3625 20.4098 25.7903 20.0741C25.218 19.7384 24.5455 19.6158 23.8916 19.728C23.2377 19.8402 22.6445 20.1799 22.2169 20.6872C21.7892 21.1945 21.5547 21.8365 21.5547 22.5C21.5547 23.1635 21.7892 23.8056 22.2169 24.3128C22.6445 24.8201 23.2377 25.1598 23.8916 25.272C24.5455 25.3842 25.218 25.2616 25.7903 24.9259C26.3625 24.5902 26.7977 24.063 27.0188 23.4375H34.0126L35.2595 27.1875H33.5813C33.3602 26.562 32.925 26.0348 32.3528 25.6991C31.7805 25.3634 31.108 25.2408 30.4541 25.353C29.8002 25.4652 29.207 25.8049 28.7794 26.3122C28.3517 26.8195 28.1172 27.4615 28.1172 28.125C28.1172 28.7885 28.3517 29.4306 28.7794 29.9378C29.207 30.4451 29.8002 30.7848 30.4541 30.897C31.108 31.0092 31.7805 30.8866 32.3528 30.5509C32.925 30.2152 33.3602 29.688 33.5813 29.0625H34.5188C34.0559 30.1729 33.7956 31.3572 33.7501 32.5594L30.122 38.9063C30.0502 39.0322 30.0085 39.1732 30.0004 39.3179C29.9923 39.4627 30.0178 39.6074 30.0751 39.7406C30.1319 39.8745 30.2191 39.9933 30.3297 40.0877C30.4404 40.1821 30.5714 40.2494 30.7126 40.2844L33.7876 41.0531C33.9689 43.122 34.9069 45.0514 36.422 46.4719C37.7461 47.719 39.4415 48.4992 41.2501 48.6938V50.625H39.3751C37.8832 50.625 36.4525 51.2176 35.3976 52.2725C34.3427 53.3274 33.7501 54.7582 33.7501 56.25V57.1875C33.7501 57.4361 33.8489 57.6746 34.0247 57.8504C34.2005 58.0262 34.4389 58.125 34.6876 58.125C34.9362 58.125 35.1747 58.0262 35.3505 57.8504C35.5263 57.6746 35.6251 57.4361 35.6251 57.1875V56.25C35.6251 55.2554 36.0202 54.3016 36.7234 53.5984C37.4267 52.8951 38.3805 52.5 39.3751 52.5H42.1876C42.4362 52.5 42.6747 52.4012 42.8505 52.2254C43.0263 52.0496 43.1251 51.8111 43.1251 51.5625V48.6844C45.2158 48.4176 47.1354 47.3913 48.5184 45.8009C49.9014 44.2104 50.6512 42.1669 50.6251 40.0594C50.633 38.8349 50.923 37.6288 51.4726 36.5346C52.0221 35.4404 52.8164 34.4875 53.7938 33.75L54.0001 33.6C54.1217 33.509 54.2194 33.3897 54.2847 33.2525C54.3501 33.1153 54.3811 32.9643 54.3751 32.8125C54.3856 30.4858 53.598 28.2257 52.1438 26.4094C51.9897 26.2142 51.7643 26.0882 51.5173 26.0592C51.2703 26.0302 51.0218 26.1005 50.8267 26.2547C50.6315 26.4088 50.5055 26.6342 50.4765 26.8812C50.4475 27.1283 50.5178 27.3767 50.672 27.5719C51.7695 28.9334 52.4092 30.6067 52.5001 32.3531C51.3351 33.2723 50.3927 34.4428 49.7434 35.7772C49.094 37.1116 48.7545 38.5754 48.7501 40.0594C48.785 41.7602 48.172 43.4106 47.0352 44.6762C45.8984 45.9418 44.323 46.7279 42.6282 46.875H42.1876C40.5229 46.8851 38.9181 46.254 37.7063 45.1125C37.1043 44.5468 36.6144 43.8725 36.2626 43.125H39.3751C39.6237 43.125 39.8622 43.0262 40.038 42.8504C40.2138 42.6746 40.3126 42.4361 40.3126 42.1875C40.3126 41.9389 40.2138 41.7004 40.038 41.5246C39.8622 41.3488 39.6237 41.25 39.3751 41.25H35.7001C35.6514 40.9398 35.6264 40.6265 35.6251 40.3125C35.6313 40.0984 35.564 39.8885 35.4344 39.7179C35.3047 39.5474 35.1206 39.4263 34.9126 39.375L32.3626 38.7375L35.5032 33.2531C35.5766 33.1173 35.6183 32.9667 35.6251 32.8125C35.6432 31.5068 35.9641 30.2231 36.5626 29.0625H42.4032C42.647 29.6537 43.085 30.1442 43.645 30.453C44.205 30.7619 44.8535 30.8707 45.4836 30.7615C46.1137 30.6523 46.6878 30.3316 47.1112 29.8523C47.5346 29.373 47.782 28.7638 47.8126 28.125C47.8101 27.706 47.714 27.2928 47.5313 26.9156L53.1563 21.2906C53.2449 21.2038 53.3154 21.1003 53.3637 20.986C53.4119 20.8717 53.4371 20.749 53.4376 20.625V14.0625H54.3751C54.6237 14.0625 54.8622 13.9637 55.038 13.7879C55.2138 13.6121 55.3126 13.3736 55.3126 13.125V12.1875H57.1876C57.4362 12.1875 57.6747 12.0887 57.8505 11.9129C58.0263 11.7371 58.1251 11.4986 58.1251 11.25C58.1251 11.0014 58.0263 10.7629 57.8505 10.5871C57.6747 10.4113 57.4362 10.3125 57.1876 10.3125ZM36.5626 5.62501C36.3772 5.62501 36.1959 5.57002 36.0417 5.46701C35.8876 5.36399 35.7674 5.21758 35.6965 5.04627C35.6255 4.87497 35.6069 4.68647 35.6431 4.50461C35.6793 4.32275 35.7686 4.15571 35.8997 4.02459C36.0308 3.89348 36.1978 3.80419 36.3797 3.76802C36.5615 3.73185 36.75 3.75041 36.9214 3.82137C37.0927 3.89233 37.2391 4.01249 37.3421 4.16666C37.4451 4.32083 37.5001 4.50209 37.5001 4.68751C37.5001 4.93615 37.4013 5.1746 37.2255 5.35042C37.0497 5.52623 36.8112 5.62501 36.5626 5.62501ZM25.3126 9.37501C25.1272 9.37501 24.9459 9.32002 24.7917 9.21701C24.6376 9.11399 24.5174 8.96758 24.4465 8.79627C24.3755 8.62497 24.3569 8.43647 24.3931 8.25461C24.4293 8.07275 24.5186 7.9057 24.6497 7.77459C24.7808 7.64348 24.9478 7.55419 25.1297 7.51802C25.3115 7.48185 25.5 7.50041 25.6714 7.57137C25.8427 7.64233 25.9891 7.76249 26.0921 7.91666C26.1951 8.07083 26.2501 8.25209 26.2501 8.43751C26.2501 8.68615 26.1513 8.9246 25.9755 9.10042C25.7997 9.27623 25.5612 9.37501 25.3126 9.37501ZM32.8126 17.8125C32.6272 17.8125 32.4459 17.7575 32.2917 17.6545C32.1376 17.5515 32.0174 17.4051 31.9465 17.2338C31.8755 17.0625 31.8569 16.874 31.8931 16.6921C31.9293 16.5103 32.0186 16.3432 32.1497 16.2121C32.2808 16.081 32.4478 15.9917 32.6297 15.9555C32.8115 15.9193 33 15.9379 33.1714 16.0089C33.3427 16.0798 33.4891 16.2 33.5921 16.3542C33.6951 16.5083 33.7501 16.6896 33.7501 16.875C33.7501 17.1236 33.6513 17.3621 33.4755 17.5379C33.2997 17.7137 33.0612 17.8125 32.8126 17.8125ZM24.3751 23.4375C24.1897 23.4375 24.0084 23.3825 23.8542 23.2795C23.7001 23.1765 23.5799 23.0301 23.509 22.8588C23.438 22.6875 23.4194 22.499 23.4556 22.3171C23.4918 22.1353 23.5811 21.9682 23.7122 21.8371C23.8433 21.706 24.0103 21.6167 24.1922 21.5805C24.374 21.5443 24.5625 21.5629 24.7339 21.6339C24.9052 21.7048 25.0516 21.825 25.1546 21.9792C25.2576 22.1333 25.3126 22.3146 25.3126 22.5C25.3126 22.7486 25.2138 22.9871 25.038 23.1629C24.8622 23.3387 24.6237 23.4375 24.3751 23.4375ZM30.9376 29.0625C30.7522 29.0625 30.5709 29.0075 30.4167 28.9045C30.2626 28.8015 30.1424 28.6551 30.0715 28.4838C30.0005 28.3125 29.9819 28.124 30.0181 27.9421C30.0543 27.7603 30.1436 27.5932 30.2747 27.4621C30.4058 27.331 30.5728 27.2417 30.7547 27.2055C30.9365 27.1693 31.125 27.1879 31.2964 27.2589C31.4677 27.3298 31.6141 27.45 31.7171 27.6042C31.8201 27.7583 31.8751 27.9396 31.8751 28.125C31.8751 28.3736 31.7763 28.6121 31.6005 28.7879C31.4247 28.9637 31.1862 29.0625 30.9376 29.0625ZM45.0001 29.0625C44.8147 29.0625 44.6334 29.0075 44.4792 28.9045C44.3251 28.8015 44.2049 28.6551 44.134 28.4838C44.063 28.3125 44.0444 28.124 44.0806 27.9421C44.1168 27.7603 44.2061 27.5932 44.3372 27.4621C44.4683 27.331 44.6353 27.2417 44.8172 27.2055C44.999 27.1693 45.1875 27.1879 45.3589 27.2589C45.5302 27.3298 45.6766 27.45 45.7796 27.6042C45.8826 27.7583 45.9376 27.9396 45.9376 28.125C45.9376 28.3736 45.8388 28.6121 45.663 28.7879C45.4872 28.9637 45.2487 29.0625 45.0001 29.0625ZM53.4376 12.1875H47.8126V6.56251H53.4376V12.1875Z" fill="white"/>
<path d="M50.625 10.3125C51.1428 10.3125 51.5625 9.89277 51.5625 9.375C51.5625 8.85723 51.1428 8.4375 50.625 8.4375C50.1072 8.4375 49.6875 8.85723 49.6875 9.375C49.6875 9.89277 50.1072 10.3125 50.625 10.3125Z" fill="white"/>
<path d="M13.125 33.75H9.375C9.12636 33.75 8.8879 33.8488 8.71209 34.0246C8.53627 34.2004 8.4375 34.4389 8.4375 34.6875V36.5625H6.5625C6.31386 36.5625 6.0754 36.6613 5.89959 36.8371C5.72377 37.0129 5.625 37.2514 5.625 37.5V41.25C5.625 41.4986 5.72377 41.7371 5.89959 41.9129C6.0754 42.0887 6.31386 42.1875 6.5625 42.1875H8.4375V44.0625C8.4375 44.3111 8.53627 44.5496 8.71209 44.7254C8.8879 44.9012 9.12636 45 9.375 45H13.125C13.3736 45 13.6121 44.9012 13.7879 44.7254C13.9637 44.5496 14.0625 44.3111 14.0625 44.0625V42.1875H15.9375C16.1861 42.1875 16.4246 42.0887 16.6004 41.9129C16.7762 41.7371 16.875 41.4986 16.875 41.25V37.5C16.875 37.2514 16.7762 37.0129 16.6004 36.8371C16.4246 36.6613 16.1861 36.5625 15.9375 36.5625H14.0625V34.6875C14.0625 34.4389 13.9637 34.2004 13.7879 34.0246C13.6121 33.8488 13.3736 33.75 13.125 33.75ZM15 38.4375V40.3125H13.125C12.8764 40.3125 12.6379 40.4113 12.4621 40.5871C12.2863 40.7629 12.1875 41.0014 12.1875 41.25V43.125H10.3125V41.25C10.3125 41.0014 10.2137 40.7629 10.0379 40.5871C9.8621 40.4113 9.62364 40.3125 9.375 40.3125H7.5V38.4375H9.375C9.62364 38.4375 9.8621 38.3387 10.0379 38.1629C10.2137 37.9871 10.3125 37.7486 10.3125 37.5V35.625H12.1875V37.5C12.1875 37.7486 12.2863 37.9871 12.4621 38.1629C12.6379 38.3387 12.8764 38.4375 13.125 38.4375H15Z" fill="white"/>
<path d="M25.3125 30H2.8125C2.56386 30 2.3254 30.0988 2.14959 30.2746C1.97377 30.4504 1.875 30.6889 1.875 30.9375V42.1875C1.875 42.4361 1.97377 42.6746 2.14959 42.8504C2.3254 43.0262 2.56386 43.125 2.8125 43.125C3.06114 43.125 3.2996 43.0262 3.47541 42.8504C3.65123 42.6746 3.75 42.4361 3.75 42.1875V31.875H24.375V48.75H3.75V45.9375C3.75 45.6889 3.65123 45.4504 3.47541 45.2746C3.2996 45.0988 3.06114 45 2.8125 45C2.56386 45 2.3254 45.0988 2.14959 45.2746C1.97377 45.4504 1.875 45.6889 1.875 45.9375V49.6875C1.875 49.9361 1.97377 50.1746 2.14959 50.3504C2.3254 50.5262 2.56386 50.625 2.8125 50.625H10.05L9.58125 52.5H6.5625C6.31386 52.5 6.0754 52.5988 5.89959 52.7746C5.72377 52.9504 5.625 53.1889 5.625 53.4375C5.625 53.6861 5.72377 53.9246 5.89959 54.1004C6.0754 54.2762 6.31386 54.375 6.5625 54.375H21.5625C21.8111 54.375 22.0496 54.2762 22.2254 54.1004C22.4012 53.9246 22.5 53.6861 22.5 53.4375C22.5 53.1889 22.4012 52.9504 22.2254 52.7746C22.0496 52.5988 21.8111 52.5 21.5625 52.5H18.5438L18.075 50.625H25.3125C25.5611 50.625 25.7996 50.5262 25.9754 50.3504C26.1512 50.1746 26.25 49.9361 26.25 49.6875V30.9375C26.25 30.6889 26.1512 30.4504 25.9754 30.2746C25.7996 30.0988 25.5611 30 25.3125 30ZM16.6125 52.5H11.5125L11.9812 50.625H16.1437L16.6125 52.5Z" fill="white"/>
<path d="M19.6875 35.625H21.5625C21.8111 35.625 22.0496 35.5262 22.2254 35.3504C22.4012 35.1746 22.5 34.9361 22.5 34.6875C22.5 34.4389 22.4012 34.2004 22.2254 34.0246C22.0496 33.8488 21.8111 33.75 21.5625 33.75H19.6875C19.4389 33.75 19.2004 33.8488 19.0246 34.0246C18.8488 34.2004 18.75 34.4389 18.75 34.6875C18.75 34.9361 18.8488 35.1746 19.0246 35.3504C19.2004 35.5262 19.4389 35.625 19.6875 35.625Z" fill="white"/>
<path d="M19.6875 39.375H21.5625C21.8111 39.375 22.0496 39.2762 22.2254 39.1004C22.4012 38.9246 22.5 38.6861 22.5 38.4375C22.5 38.1889 22.4012 37.9504 22.2254 37.7746C22.0496 37.5988 21.8111 37.5 21.5625 37.5H19.6875C19.4389 37.5 19.2004 37.5988 19.0246 37.7746C18.8488 37.9504 18.75 38.1889 18.75 38.4375C18.75 38.6861 18.8488 38.9246 19.0246 39.1004C19.2004 39.2762 19.4389 39.375 19.6875 39.375Z" fill="white"/>
<path d="M19.6875 43.125H21.5625C21.8111 43.125 22.0496 43.0262 22.2254 42.8504C22.4012 42.6746 22.5 42.4361 22.5 42.1875C22.5 41.9389 22.4012 41.7004 22.2254 41.5246C22.0496 41.3488 21.8111 41.25 21.5625 41.25H19.6875C19.4389 41.25 19.2004 41.3488 19.0246 41.5246C18.8488 41.7004 18.75 41.9389 18.75 42.1875C18.75 42.4361 18.8488 42.6746 19.0246 42.8504C19.2004 43.0262 19.4389 43.125 19.6875 43.125Z" fill="white"/>
<path d="M15 45.9375C15 46.1861 15.0988 46.4246 15.2746 46.6004C15.4504 46.7762 15.6889 46.875 15.9375 46.875H21.5625C21.8111 46.875 22.0496 46.7762 22.2254 46.6004C22.4012 46.4246 22.5 46.1861 22.5 45.9375C22.5 45.6889 22.4012 45.4504 22.2254 45.2746C22.0496 45.0988 21.8111 45 21.5625 45H15.9375C15.6889 45 15.4504 45.0988 15.2746 45.2746C15.0988 45.4504 15 45.6889 15 45.9375Z" fill="white"/>
<path d="M17.8125 56.25H5.625C5.37636 56.25 5.1379 56.3488 4.96209 56.5246C4.78627 56.7004 4.6875 56.9389 4.6875 57.1875C4.6875 57.4361 4.78627 57.6746 4.96209 57.8504C5.1379 58.0262 5.37636 58.125 5.625 58.125H17.8125C18.0611 58.125 18.2996 58.0262 18.4754 57.8504C18.6512 57.6746 18.75 57.4361 18.75 57.1875C18.75 56.9389 18.6512 56.7004 18.4754 56.5246C18.2996 56.3488 18.0611 56.25 17.8125 56.25Z" fill="white"/>
<path d="M25.3125 56.25H21.5625C21.3139 56.25 21.0754 56.3488 20.8996 56.5246C20.7238 56.7004 20.625 56.9389 20.625 57.1875C20.625 57.4361 20.7238 57.6746 20.8996 57.8504C21.0754 58.0262 21.3139 58.125 21.5625 58.125H25.3125C25.5611 58.125 25.7996 58.0262 25.9754 57.8504C26.1512 57.6746 26.25 57.4361 26.25 57.1875C26.25 56.9389 26.1512 56.7004 25.9754 56.5246C25.7996 56.3488 25.5611 56.25 25.3125 56.25Z" fill="white"/>
<path d="M54.375 50.7187V38.4375C54.375 38.1889 54.2762 37.9504 54.1004 37.7746C53.9246 37.5988 53.6861 37.5 53.4375 37.5C53.1889 37.5 52.9504 37.5988 52.7746 37.7746C52.5988 37.9504 52.5 38.1889 52.5 38.4375V50.625H48.75C48.5014 50.625 48.2629 50.7238 48.0871 50.8996C47.9113 51.0754 47.8125 51.3139 47.8125 51.5625C47.8125 51.8111 47.9113 52.0496 48.0871 52.2254C48.2629 52.4012 48.5014 52.5 48.75 52.5H53.4375C54.1834 52.5 54.8988 52.7963 55.4262 53.3238C55.9537 53.8512 56.25 54.5666 56.25 55.3125V57.1875C56.25 57.4361 56.3488 57.6746 56.5246 57.8504C56.7004 58.0262 56.9389 58.125 57.1875 58.125C57.4361 58.125 57.6746 58.0262 57.8504 57.8504C58.0262 57.6746 58.125 57.4361 58.125 57.1875V55.3125C58.1252 54.2319 57.7521 53.1844 57.0687 52.3473C56.3854 51.5102 55.4338 50.9349 54.375 50.7187Z" fill="white"/>
<path d="M6.5625 17.1V17.8125H5.625C5.37636 17.8125 5.1379 17.9113 4.96209 18.0871C4.78627 18.2629 4.6875 18.5014 4.6875 18.75C4.6875 18.9987 4.78627 19.2371 4.96209 19.4129C5.1379 19.5887 5.37636 19.6875 5.625 19.6875H15C15.2486 19.6875 15.4871 19.7863 15.6629 19.9621C15.8387 20.1379 15.9375 20.3764 15.9375 20.625C15.9375 20.8737 15.8387 21.1121 15.6629 21.2879C15.4871 21.4637 15.2486 21.5625 15 21.5625H5.625C5.37636 21.5625 5.1379 21.6613 4.96209 21.8371C4.78627 22.0129 4.6875 22.2514 4.6875 22.5C4.6875 22.7487 4.78627 22.9871 4.96209 23.1629C5.1379 23.3387 5.37636 23.4375 5.625 23.4375H6.65625C6.88355 24.4994 7.47247 25.4494 8.32241 26.1252C9.17235 26.8011 10.2306 27.1609 11.3163 27.1432C12.4021 27.1255 13.448 26.7314 14.2755 26.0281C15.1029 25.3249 15.6606 24.3562 15.8531 23.2875C16.4057 23.1032 16.8874 22.7518 17.2317 22.2819C17.576 21.812 17.7659 21.2467 17.7752 20.6643C17.7845 20.0818 17.6126 19.5108 17.2835 19.0302C16.9543 18.5496 16.484 18.1831 15.9375 17.9813V17.1C17.1505 16.1288 18.0319 14.8049 18.4599 13.3111C18.8879 11.8174 18.8414 10.2276 18.3267 8.7614C17.8121 7.29523 16.8548 6.02509 15.5871 5.12653C14.3194 4.22796 12.8039 3.74533 11.25 3.74533C9.69613 3.74533 8.18063 4.22796 6.91292 5.12653C5.64522 6.02509 4.6879 7.29523 4.17327 8.7614C3.65865 10.2276 3.61212 11.8174 4.04012 13.3111C4.46812 14.8049 5.34951 16.1288 6.5625 17.1ZM11.25 25.3125C10.6697 25.3109 10.1042 25.1298 9.63088 24.7941C9.15757 24.4585 8.79967 23.9846 8.60625 23.4375H13.8937C13.7003 23.9846 13.3424 24.4585 12.8691 24.7941C12.3958 25.1298 11.8303 25.3109 11.25 25.3125ZM11.0625 17.8125L9.8625 12.3844L10.7344 12.9656C10.8874 13.0664 11.0667 13.1202 11.25 13.1202C11.4333 13.1202 11.6126 13.0664 11.7656 12.9656L12.6375 12.3844L11.4375 17.8125H11.0625ZM11.25 5.62502C12.4466 5.62585 13.6118 6.00828 14.5762 6.71673C15.5406 7.42518 16.254 8.42273 16.6126 9.56438C16.9712 10.706 16.9563 11.9323 16.5702 13.065C16.1841 14.1976 15.4469 15.1776 14.4656 15.8625C14.3414 15.9487 14.2399 16.0636 14.1697 16.1974C14.0995 16.3313 14.0627 16.4801 14.0625 16.6313V17.8125H13.3594L15 10.5188C15.0325 10.3421 15.0135 10.1598 14.9454 9.99362C14.8772 9.82741 14.7628 9.68429 14.6156 9.58127C14.4606 9.47648 14.2778 9.42048 14.0906 9.42048C13.9035 9.42048 13.7207 9.47648 13.5656 9.58127L11.25 11.0625L8.95313 9.53439C8.79809 9.4296 8.61525 9.3736 8.42813 9.3736C8.241 9.3736 8.05816 9.4296 7.90313 9.53439C7.75597 9.63741 7.64152 9.78054 7.57337 9.94674C7.50523 10.1129 7.48627 10.2952 7.51875 10.4719L9.14063 17.8125H8.4375V16.6313C8.43725 16.4801 8.40046 16.3313 8.33027 16.1974C8.26008 16.0636 8.15856 15.9487 8.03438 15.8625C7.05312 15.1776 6.31587 14.1976 5.92976 13.065C5.54366 11.9323 5.52883 10.706 5.88742 9.56438C6.24602 8.42273 6.95936 7.42518 7.92375 6.71673C8.88815 6.00828 10.0534 5.62585 11.25 5.62502Z" fill="white"/>
</svg>
