<svg width="60" height="60" viewBox="0 0 60 60" fill="none" xmlns="http://www.w3.org/2000/svg">
<path d="M14.7354 38.1176C12.9707 38.1176 11.4707 39.5294 11.4707 41.3824C11.4707 43.1471 12.8825 44.6471 14.7354 44.6471C16.5884 44.6471 18.0001 43.1471 18.0001 41.3824C17.9119 39.5294 16.5001 38.1176 14.7354 38.1176Z" fill="white"/>
<path d="M55.8529 33.2647H43.147C42.7941 31.4118 41.2941 29.9118 39.2646 29.6471C39.0882 29.6471 38.9117 29.6471 38.647 29.6471L31.4999 18.8824C31.4999 18 31.2352 17.0294 30.7058 16.2353C29.1176 13.5882 25.7646 12.7059 23.0294 14.2059C21.3529 15.1765 20.3823 16.8529 20.2941 18.7059C10.5882 35.0294 10.9411 34.2353 10.7646 34.6765C8.55877 36 7.05877 38.4706 7.05877 41.2059V48.1765C5.20582 48.4412 3.79406 50.0294 3.79406 51.9706V56.3824H2.647C2.11759 56.3824 1.76465 56.7353 1.76465 57.2647C1.76465 57.7059 2.11759 58.1471 2.647 58.1471H31.7646C32.2058 58.1471 32.647 57.7059 32.647 57.2647C32.647 56.7353 32.2058 56.3824 31.7646 56.3824H29.9999V51.9706C29.9999 49.8529 28.2352 48.0882 26.1176 48.0882H22.5882V41.2059C22.5882 39.1765 21.7941 37.3235 20.4705 36L25.3235 24.6176C25.6764 24.7059 26.2058 24.7059 26.647 24.6176L34.2352 33.2647C34.2352 33.3529 34.147 33.5294 34.147 33.6176C33.7941 36.0882 35.5588 38.3824 38.1176 38.7353C40.4117 39 42.6176 37.5 43.147 35.1176H55.8529C56.2941 35.1176 56.7352 34.7647 56.7352 34.2353C56.7352 33.6176 56.3823 33.2647 55.8529 33.2647ZM22.6764 20.9118C21.1764 18.3529 23.0294 15.1765 25.9411 15.1765C27.3529 15.1765 28.5882 15.9706 29.2941 17.1176C30.7941 19.5882 29.0294 22.7647 26.1176 22.8529C24.8823 22.8529 23.4705 22.3235 22.6764 20.9118ZM28.147 51.8823V56.2941H5.73524V51.8823C5.73524 50.7353 6.70582 49.7647 7.85288 49.7647H26.1176C27.2646 49.8529 28.147 50.7353 28.147 51.8823ZM20.8235 48.0882H8.99994V41.2059C8.99994 37.9412 11.647 35.2941 14.9117 35.2941C18.2646 35.2941 20.8235 38.1176 20.8235 41.2059V48.0882ZM41.4705 34.1471C41.4705 35.8235 40.0588 37.0588 38.3823 36.8824C36.7941 36.7059 35.8235 35.2059 35.9999 33.7941C36.1764 32.3824 37.4117 31.3235 38.7352 31.3235C40.147 31.3235 41.4705 32.4706 41.4705 34.1471Z" fill="white"/>
<path d="M19.0591 51.8823C18.5297 51.8823 18.1768 52.2353 18.1768 52.7647V54.0882C18.1768 54.6176 18.5297 54.9706 19.0591 54.9706C19.5003 54.9706 19.9415 54.6176 19.9415 54.0882V52.7647C19.9415 52.2353 19.5885 51.8823 19.0591 51.8823Z" fill="white"/>
<path d="M22.4995 51.8823C22.0584 51.8823 21.6172 52.2353 21.6172 52.7647V54.0882C21.6172 54.6176 22.0584 54.9706 22.4995 54.9706C23.029 54.9706 23.3819 54.6176 23.3819 54.0882V52.7647C23.3819 52.2353 22.9407 51.8823 22.4995 51.8823Z" fill="white"/>
<path d="M24.9707 52.7647V54.0882C24.9707 54.6176 25.4119 54.9706 25.8531 54.9706C26.3825 54.9706 26.7354 54.6176 26.7354 54.0882V52.7647C26.7354 52.2353 26.3825 51.8824 25.8531 51.8824C25.4119 51.8824 24.9707 52.2353 24.9707 52.7647Z" fill="white"/>
<path d="M57.3528 18.7941C57.8822 18.7941 58.2351 18.4412 58.2351 17.9117C58.2351 17.3823 57.8822 17.0294 57.3528 17.0294H56.2057V14.9117H57.3528C57.8822 14.9117 58.2351 14.5588 58.2351 14.0294C58.2351 13.5 57.8822 13.147 57.3528 13.147H56.2057V12.7059C56.2057 11.2059 54.9704 9.97057 53.4704 9.97057H53.0292V8.82351C53.0292 8.2941 52.6763 7.94116 52.1469 7.94116C51.6175 7.94116 51.2645 8.2941 51.2645 8.82351V9.97057H49.1469V8.82351C49.1469 8.2941 48.7939 7.94116 48.2645 7.94116C47.7351 7.94116 47.3822 8.2941 47.3822 8.82351V9.97057H45.2645V8.82351C45.2645 8.2941 44.9116 7.94116 44.3822 7.94116C43.8528 7.94116 43.4998 8.2941 43.4998 8.82351V9.97057H43.0586C41.5586 9.97057 40.3234 11.2059 40.3234 12.7059V13.147H39.1763C38.6469 13.147 38.2939 13.5 38.2939 14.0294C38.2939 14.5588 38.6469 14.9117 39.1763 14.9117H40.3234V17.0294H39.1763C38.6469 17.0294 38.2939 17.3823 38.2939 17.9117C38.2939 18.4412 38.6469 18.7941 39.1763 18.7941H40.3234V20.9117H39.1763C38.6469 20.9117 38.2939 21.2647 38.2939 21.7941C38.2939 22.3235 38.6469 22.6765 39.1763 22.6765H40.3234V23.0294C40.3234 24.5294 41.5586 25.7647 43.0586 25.7647H43.4998V26.9117C43.4998 27.4412 43.8528 27.7941 44.3822 27.7941C44.9116 27.7941 45.2645 27.4412 45.2645 26.9117V25.7647H47.3822V26.9117C47.3822 27.4412 47.7351 27.7941 48.2645 27.7941C48.7939 27.7941 49.1469 27.4412 49.1469 26.9117V25.7647H51.2645V26.9117C51.2645 27.4412 51.6175 27.7941 52.1469 27.7941C52.6763 27.7941 53.0292 27.4412 53.0292 26.9117V25.7647H53.4704C54.9704 25.7647 56.2057 24.5294 56.2057 23.0294V22.6765H57.3528C57.8822 22.6765 58.2351 22.3235 58.2351 21.7941C58.2351 21.2647 57.8822 20.9117 57.3528 20.9117H56.2057V18.7941H57.3528ZM46.4998 21.6176C45.441 21.6176 44.6469 20.7353 44.6469 19.6765V16.147C44.6469 15.0882 45.5292 14.2059 46.4998 14.2059H50.0292C51.0881 14.2059 51.9704 15.0882 51.9704 16.147V19.6765C51.9704 20.7353 51.0881 21.6176 50.0292 21.6176H46.4998Z" fill="white"/>
<path d="M54.0002 46.9412H52.9413C52.7649 46.0588 52.4119 45.2647 51.9708 44.5588L52.7649 43.7647C53.0296 43.5 53.0296 43.147 52.7649 42.8823L51.7943 41.9117C51.5296 41.647 51.1766 41.647 50.9119 41.9117L50.1178 42.7059C49.4119 42.2647 48.6178 41.9117 47.7355 41.7353V40.6765C47.7355 40.3235 47.4708 40.0588 47.1178 40.0588H45.7061C45.3531 40.0588 45.0884 40.3235 45.0884 40.6765V41.7353C44.2061 41.9117 43.4119 42.2647 42.7061 42.7059L41.9119 41.9117C41.6472 41.647 41.2943 41.647 41.0296 41.9117L40.059 42.8823C39.7943 43.147 39.7943 43.5 40.059 43.7647L40.8531 44.5588C40.4119 45.2647 40.059 46.0588 39.8825 46.9412H38.8237C38.4708 46.9412 38.2061 47.2059 38.2061 47.5588V48.9706C38.2061 49.3235 38.4708 49.5882 38.8237 49.5882H39.7061C39.8825 50.4706 40.2355 51.2647 40.6766 51.9706L39.8825 52.7647C39.6178 53.0294 39.6178 53.3823 39.8825 53.647L40.8531 54.6176C41.1178 54.8823 41.4708 54.8823 41.7355 54.6176L42.5296 53.8235C43.2355 54.2647 44.0296 54.6176 44.9119 54.7941V55.8529C44.9119 56.2059 45.1766 56.4706 45.5296 56.4706H46.9413C47.2943 56.4706 47.559 56.2059 47.559 55.8529V54.7941C48.4414 54.6176 49.2355 54.2647 49.9413 53.8235L50.7355 54.6176C51.0002 54.8823 51.3531 54.8823 51.6178 54.6176L52.5884 53.647C52.8531 53.3823 52.8531 53.0294 52.5884 52.7647L51.7943 51.9706C52.2355 51.2647 52.5884 50.4706 52.7649 49.5882H53.8237C54.1766 49.5882 54.4414 49.3235 54.4414 48.9706V47.5588C54.6178 47.2059 54.3531 46.9412 54.0002 46.9412ZM46.3237 51.5294C44.559 51.5294 43.059 50.0294 43.059 48.2647C43.059 46.5 44.559 45 46.3237 45C48.1766 45 49.5884 46.5 49.5884 48.2647C49.5884 50.0294 48.1766 51.5294 46.3237 51.5294Z" fill="white"/>
<path d="M3.88205 12.4412C4.32323 12.6176 4.85264 12.3529 4.94088 11.8235C6.79382 5.73528 13.1468 2.29411 19.235 4.14705C19.6762 4.32352 20.2056 4.05881 20.2938 3.5294C20.4703 3.08823 20.2056 2.55881 19.6762 2.47058C12.7938 0.441166 5.38205 4.41175 3.26441 11.3823C3.08794 11.8235 3.35264 12.3529 3.88205 12.4412Z" fill="white"/>
<path d="M19.7651 7.05882C19.9416 6.61764 19.6769 6.08823 19.2357 5.91176C14.1181 4.14705 8.55924 6.79411 6.79453 11.9118C6.61806 12.3529 6.88277 12.8823 7.32395 13.0588C7.76512 13.2353 8.29453 12.9706 8.471 12.5294C9.971 8.38235 14.5592 6.17646 18.7063 7.67647C19.0592 7.7647 19.5887 7.58823 19.7651 7.05882Z" fill="white"/>
<path d="M17.4703 10.8529C17.9115 11.0294 18.4409 10.7647 18.6174 10.3235C18.7938 9.88234 18.5291 9.35293 18.088 9.17646C16.4997 8.64704 14.8233 8.73528 13.235 9.44116C11.735 10.147 10.588 11.4706 9.97032 13.0588C9.79384 13.5 10.0585 14.0294 10.4997 14.2059C10.9409 14.3823 11.4703 14.1176 11.6468 13.6765C12.088 12.5294 12.8821 11.647 13.9409 11.1176C15.088 10.5882 16.3233 10.5 17.4703 10.8529Z" fill="white"/>
<path d="M17.1177 17.7353C18.5294 17.0294 19.1471 15.3529 18.4412 13.9412C17.8236 12.5294 16.0589 11.9118 14.6471 12.6176C13.2353 13.3235 12.6177 15 13.3236 16.4118C14.0294 17.8235 15.7942 18.4412 17.1177 17.7353Z" fill="white"/>
<path d="M25.9408 17.3824C25.0584 17.3824 24.3525 18.0882 24.3525 18.9706C24.3525 19.8529 25.0584 20.5588 25.9408 20.5588C26.8231 20.5588 27.529 19.8529 27.529 18.9706C27.6172 18.0882 26.9114 17.3824 25.9408 17.3824Z" fill="white"/>
</svg>
