<svg width="60" height="60" viewBox="0 0 60 60" fill="none" xmlns="http://www.w3.org/2000/svg">
<path d="M3.96215 57.0102H56.0376C56.6628 57.0102 57.1697 56.5033 57.1697 55.8782C57.1697 55.253 56.6628 54.7461 56.0376 54.7461H54.4694V30.7978C54.4694 30.1726 53.9625 29.6657 53.3373 29.6657H49.0506V27.1025C49.0506 26.4774 48.5437 25.9705 47.9185 25.9705H40.6695V20.1459C40.6695 19.5207 40.1626 19.0138 39.5374 19.0138H35.0262V16.4556C35.0262 15.8304 34.5193 15.3235 33.8942 15.3235H25.5092C24.884 15.3235 24.3771 15.8304 24.3771 16.4556V19.0138H19.8731C19.2479 19.0138 18.741 19.5207 18.741 20.1459V33.4519C17.1645 32.4842 15.3141 32.0762 13.7495 32.2035C9.36146 32.4201 5.52981 36.1368 5.52981 40.897C5.52981 44.6512 10.5996 51.8381 12.8204 54.7461H3.96215C3.33697 54.7461 2.83008 55.253 2.83008 55.8782C2.83008 56.5033 3.33697 57.0102 3.96215 57.0102ZM52.2053 54.7461H40.6695V31.9299H52.2053V54.7461ZM46.7864 28.2346V29.6657H40.6695V28.2346H46.7864ZM26.6413 17.5877H32.7621V19.0138H26.6413V17.5877ZM21.0052 21.278H25.4873C25.495 21.2781 25.5014 21.2824 25.5092 21.2824C26.8278 21.282 20.7324 21.2841 38.4053 21.278C38.4007 53.2302 38.4015 8.05435 38.4015 54.7422H21.0052V46.6054C21.8883 44.9529 22.9526 42.7668 22.9526 40.897C22.9526 38.9511 22.3028 37.0169 21.0083 35.4364C21.0072 35.435 21.0063 35.4336 21.0052 35.4323V21.278ZM7.79396 40.897C7.79396 37.3947 10.6305 34.6247 13.8943 34.4633C17.2558 34.1848 20.6885 37.0273 20.6885 40.897C20.6885 43.8145 15.9938 50.5302 14.2503 52.8849C12.5231 50.5893 7.79396 43.7634 7.79396 40.897ZM18.741 50.38V54.7461H15.6874C16.9336 53.0896 17.6641 52.0199 18.741 50.38Z" fill="white"/>
<path d="M48.8186 50.6578C48.1934 50.6578 47.6865 51.1647 47.6865 51.7899C47.6865 52.4151 48.1934 52.922 48.8186 52.922H50.1364C50.7616 52.922 51.2685 52.4151 51.2685 51.7899C51.2685 51.1647 50.7616 50.6578 50.1364 50.6578H48.8186Z" fill="white"/>
<path d="M45.1667 50.6578H43.8489C43.2237 50.6578 42.7168 51.1647 42.7168 51.7899C42.7168 52.415 43.2237 52.9219 43.8489 52.9219H45.1667C45.7919 52.9219 46.2988 52.415 46.2988 51.7899C46.2988 51.1647 45.7919 50.6578 45.1667 50.6578Z" fill="white"/>
<path d="M18.1852 40.7848C18.1852 38.6107 16.4163 36.8419 14.2417 36.8419C12.0677 36.8419 10.2988 38.6107 10.2988 40.7848C10.2988 42.9588 12.0677 44.7277 14.2417 44.7277C16.4163 44.7277 18.1852 42.9588 18.1852 40.7848ZM12.563 40.7848C12.563 39.8589 13.3159 39.106 14.2417 39.106C15.1676 39.106 15.9211 39.8589 15.9211 40.7848C15.9211 41.7107 15.1676 42.4635 14.2417 42.4635C13.3159 42.4635 12.563 41.7107 12.563 40.7848Z" fill="white"/>
<path d="M32.1038 25.4824H33.8345C34.4597 25.4824 34.9666 24.9755 34.9666 24.3503C34.9666 23.7251 34.4597 23.2182 33.8345 23.2182H32.1038C31.4786 23.2182 30.9717 23.7251 30.9717 24.3503C30.9717 24.9755 31.4786 25.4824 32.1038 25.4824Z" fill="white"/>
<path d="M25.5764 25.4824H27.3071C27.9323 25.4824 28.4392 24.9755 28.4392 24.3503C28.4392 23.7251 27.9323 23.2182 27.3071 23.2182H25.5764C24.9512 23.2182 24.4443 23.7251 24.4443 24.3503C24.4443 24.9755 24.9512 25.4824 25.5764 25.4824Z" fill="white"/>
<path d="M32.1038 31.0073H33.8345C34.4597 31.0073 34.9666 30.5005 34.9666 29.8753C34.9666 29.2501 34.4597 28.7432 33.8345 28.7432H32.1038C31.4786 28.7432 30.9717 29.2501 30.9717 29.8753C30.9717 30.5005 31.4786 31.0073 32.1038 31.0073Z" fill="white"/>
<path d="M25.5764 31.0073H27.3071C27.9323 31.0073 28.4392 30.5004 28.4392 29.8752C28.4392 29.2501 27.9323 28.7432 27.3071 28.7432H25.5764C24.9512 28.7432 24.4443 29.2501 24.4443 29.8752C24.4443 30.5004 24.9512 31.0073 25.5764 31.0073Z" fill="white"/>
<path d="M32.1038 36.5323H33.8345C34.4597 36.5323 34.9666 36.0254 34.9666 35.4002C34.9666 34.775 34.4597 34.2681 33.8345 34.2681H32.1038C31.4786 34.2681 30.9717 34.775 30.9717 35.4002C30.9717 36.0254 31.4786 36.5323 32.1038 36.5323Z" fill="white"/>
<path d="M25.5764 36.5323H27.3071C27.9323 36.5323 28.4392 36.0254 28.4392 35.4002C28.4392 34.775 27.9323 34.2681 27.3071 34.2681H25.5764C24.9512 34.2681 24.4443 34.775 24.4443 35.4002C24.4443 36.0254 24.9512 36.5323 25.5764 36.5323Z" fill="white"/>
<path d="M32.1038 42.0572H33.8345C34.4597 42.0572 34.9666 41.5504 34.9666 40.9252C34.9666 40.3 34.4597 39.7931 33.8345 39.7931H32.1038C31.4786 39.7931 30.9717 40.3 30.9717 40.9252C30.9717 41.5504 31.4786 42.0572 32.1038 42.0572Z" fill="white"/>
<path d="M25.5764 42.0572H27.3071C27.9323 42.0572 28.4392 41.5504 28.4392 40.9252C28.4392 40.3 27.9323 39.7931 27.3071 39.7931H25.5764C24.9512 39.7931 24.4443 40.3 24.4443 40.9252C24.4443 41.5504 24.9512 42.0572 25.5764 42.0572Z" fill="white"/>
<path d="M47.1299 34.8861C47.1299 35.5113 47.6368 36.0182 48.262 36.0182H49.5798C50.2049 36.0182 50.7118 35.5113 50.7118 34.8861C50.7118 34.261 50.2049 33.7541 49.5798 33.7541H48.262C47.6368 33.7541 47.1299 34.261 47.1299 34.8861Z" fill="white"/>
<path d="M43.2922 36.0182H44.61C45.2352 36.0182 45.7421 35.5113 45.7421 34.8861C45.7421 34.2609 45.2352 33.754 44.61 33.754H43.2922C42.667 33.754 42.1602 34.2609 42.1602 34.8861C42.1602 35.5113 42.667 36.0182 43.2922 36.0182Z" fill="white"/>
<path d="M48.262 41.6526H49.5798C50.2049 41.6526 50.7118 41.1457 50.7118 40.5205C50.7118 39.8953 50.2049 39.3885 49.5798 39.3885H48.262C47.6368 39.3885 47.1299 39.8953 47.1299 40.5205C47.1299 41.1457 47.6368 41.6526 48.262 41.6526Z" fill="white"/>
<path d="M43.2922 41.6526H44.61C45.2352 41.6526 45.7421 41.1457 45.7421 40.5205C45.7421 39.8953 45.2352 39.3884 44.61 39.3884H43.2922C42.667 39.3884 42.1602 39.8953 42.1602 40.5205C42.1602 41.1457 42.667 41.6526 43.2922 41.6526Z" fill="white"/>
<path d="M49.5798 47.2876C50.2049 47.2876 50.7118 46.7807 50.7118 46.1555C50.7118 45.5303 50.2049 45.0234 49.5798 45.0234H48.262C47.6368 45.0234 47.1299 45.5303 47.1299 46.1555C47.1299 46.7807 47.6368 47.2876 48.262 47.2876H49.5798Z" fill="white"/>
<path d="M44.61 47.2875C45.2352 47.2875 45.7421 46.7806 45.7421 46.1555C45.7421 45.5303 45.2352 45.0234 44.61 45.0234H43.2922C42.667 45.0234 42.1602 45.5303 42.1602 46.1555C42.1602 46.7806 42.667 47.2875 43.2922 47.2875H44.61Z" fill="white"/>
<path d="M32.1038 47.5822H33.8345C34.4597 47.5822 34.9666 47.0753 34.9666 46.4501C34.9666 45.8249 34.4597 45.318 33.8345 45.318H32.1038C31.4786 45.318 30.9717 45.8249 30.9717 46.4501C30.9717 47.0753 31.4786 47.5822 32.1038 47.5822Z" fill="white"/>
<path d="M25.5764 47.5822H27.3071C27.9323 47.5822 28.4392 47.0753 28.4392 46.4501C28.4392 45.8249 27.9323 45.3181 27.3071 45.3181H25.5764C24.9512 45.3181 24.4443 45.8249 24.4443 46.4501C24.4443 47.0753 24.9512 47.5822 25.5764 47.5822Z" fill="white"/>
<path d="M34.1294 50.8435H32.3987C31.7735 50.8435 31.2666 51.3504 31.2666 51.9756C31.2666 52.6008 31.7735 53.1077 32.3987 53.1077H34.1294C34.7546 53.1077 35.2615 52.6008 35.2615 51.9756C35.2615 51.3504 34.7546 50.8435 34.1294 50.8435Z" fill="white"/>
<path d="M27.6011 50.8435H25.8704C25.2452 50.8435 24.7383 51.3504 24.7383 51.9756C24.7383 52.6008 25.2452 53.1077 25.8704 53.1077H27.6011C28.2263 53.1077 28.7332 52.6008 28.7332 51.9756C28.7332 51.3504 28.2263 50.8435 27.6011 50.8435Z" fill="white"/>
<path d="M11.3977 14.7271C12.015 14.7859 12.5711 14.3293 12.6282 13.7034C12.8554 11.2303 14.0322 8.99322 15.9421 7.40456C17.8519 5.817 20.2636 5.06855 22.7389 5.29352C23.3625 5.35488 23.913 4.89277 23.9694 4.26979C24.0269 3.64737 23.5687 3.09626 22.9457 3.03932C19.8745 2.75686 16.8691 3.68883 14.4938 5.66388C12.1197 7.63949 10.6565 10.421 10.374 13.4966C10.3165 14.1191 10.7748 14.6702 11.3977 14.7271Z" fill="white"/>
<path d="M23.4759 8.85061C23.5334 8.22819 23.0746 7.67708 22.4522 7.62015C18.685 7.26748 15.3159 10.0656 14.9687 13.8449C14.9112 14.4673 15.3695 15.0184 15.9925 15.0754C16.6097 15.1342 17.1658 14.6775 17.2229 14.0516C17.4557 11.5161 19.7159 9.64771 22.2454 9.87435C22.8789 9.93294 23.4195 9.47304 23.4759 8.85061Z" fill="white"/>
<path d="M19.1982 15.5817C19.1407 16.2047 19.5995 16.7552 20.222 16.8122C20.839 16.87 21.3952 16.4153 21.4524 15.7884C21.5337 14.9113 22.3075 14.2697 23.182 14.3496C23.8078 14.4115 24.3561 13.9483 24.4125 13.3259C24.47 12.7034 24.0118 12.1523 23.3888 12.0954C21.295 11.8987 19.3935 13.4388 19.1982 15.5817Z" fill="white"/>
</svg>
